#N canvas 1 22 1658 941 10;
#X declare -lib mrpeach;
#X floatatom 836 342 5 0 0 0 - - -;
#X obj 501 1053 output~;
#X obj 867 643 hsl 128 15 0 1 0 0 empty empty Balance 45 -8 0 10 -262144
-1 -1 12700 1;
#X obj 501 956 *~;
#X floatatom 809 850 5 0 0 0 - - -;
#X obj 559 956 *~;
#X floatatom 864 665 5 0 0 0 - - -;
#X obj 556 -93 soundfiler;
#X obj 556 -150 openpanel;
#X obj 556 -176 bng 15 250 50 0 empty empty empty 17 7 0 10 -262144
-1 -1;
#X obj 526 600 bng 15 250 50 0 empty empty empty 17 7 0 10 -262144
-1 -1;
#X obj 836 422 + 1;
#X text 475 1393 fin;
#X obj 836 392 cos;
#X obj 888 392 sin;
#X obj 888 423 - 1;
#X obj 888 454 abs;
#X obj 797 194 hradio 15 1 0 2 empty empty empty 0 -8 0 10 -262144
-1 -1 0;
#X obj 809 721 abs;
#X obj 809 704 - 1;
#X text 806 215 Left/right;
#X text 836 192 Front/Back;
#X text 851 643 L;
#X text 1002 642 R;
#X floatatom 864 561 5 0 0 0 - - -;
#X obj 798 281 route 0 1;
#X obj 797 152 bng 15 250 50 0 empty empty empty 17 7 0 10 -262144
-1 -1;
#X floatatom 888 342 5 0 0 0 - - -;
#X msg 727 253 set \$1;
#N canvas 1119 183 450 300 listen 0;
#X obj -818 36 import mrpeach;
#X obj -818 104 unpackOSC;
#X obj -818 74 udpreceive 12000;
#X obj -818 146 outlet;
#X connect 1 0 3 0;
#X connect 2 0 1 0;
#X restore 591 -36 pd listen;
#X obj 727 95 unpack f;
#X obj 888 485 * 0.5;
#X obj 836 454 * 0.5;
#X floatatom 866 850 5 0 0 0 - - -;
#X floatatom 887 778 5 0 0 0 - - -;
#X obj 887 720 vsl 15 50 0 1 0 0 empty empty empty 0 -9 0 10 -262144
-1 -1 3100 1;
#X obj 866 814 * \$1;
#X floatatom 728 741 5 0 0 0 - - -;
#X obj 728 473 cos;
#X obj 728 492 abs;
#X obj 707 897 * \$1;
#X obj 741 901 * \$1;
#X obj 779 473 sin;
#X obj 779 492 abs;
#X obj 385 64 routeOSC /birdHit;
#X obj 385 600 bng 15 250 50 0 empty empty empty 17 7 0 10 -262144
-1 -1;
#X obj 526 634 tabplay~ birdFlying;
#X obj 556 -205 table birdFlying;
#X msg 556 -121 read -resize \$1 birdFlying;
#X obj 524 63 routeOSC /birdFlying;
#X obj 727 63 routeOSC /birdAngle;
#X obj 388 -93 soundfiler;
#X obj 388 -150 openpanel;
#X obj 388 -176 bng 15 250 50 0 empty empty empty 17 7 0 10 -262144
-1 -1;
#X obj 388 -205 table birdHit;
#X msg 388 -121 read -resize \$1 birdHit;
#X obj 385 635 tabplay~ birdHit;
#X obj 209 -93 soundfiler;
#X obj 209 -150 openpanel;
#X obj 209 -176 bng 15 250 50 0 empty empty empty 17 7 0 10 -262144
-1 -1;
#X obj 209 -205 table gunTrigger;
#X msg 209 -121 read -resize \$1 gunTrigger;
#X obj 230 601 bng 15 250 50 0 empty empty empty 17 7 0 10 -262144
-1 -1;
#X obj 230 65 routeOSC /gunTrigger;
#X obj 230 630 tabplay~ gunTrigger;
#X obj 310 827 *~ 0.2;
#X obj 557 999 *~ 5;
#X obj 500 997 *~ 5;
#X obj 613 975 hsl 128 15 0 10 0 0 empty empty Gain -2 -8 0 10 -262144
-1 -1 5900 1;
#X floatatom 609 1007 5 0 0 0 - - -;
#X obj 14 -86 soundfiler;
#X obj 14 -143 openpanel;
#X obj 14 -169 bng 15 250 50 0 empty empty empty 17 7 0 10 -262144
-1 -1;
#X obj 14 -198 table ambience;
#X msg 14 -114 read -resize \$1 ambience;
#X obj 12 622 tabplay~ ambience;
#X obj 15 590 bng 15 250 50 0 empty empty empty 17 7 0 10 -262144 -1
-1;
#X obj 182 857 *~ 0.2;
#X connect 0 0 38 0;
#X connect 0 0 13 0;
#X connect 2 0 6 0;
#X connect 3 0 67 0;
#X connect 4 0 40 0;
#X connect 5 0 66 0;
#X connect 6 0 19 0;
#X connect 6 0 36 0;
#X connect 8 0 48 0;
#X connect 9 0 8 0;
#X connect 10 0 46 0;
#X connect 11 0 32 0;
#X connect 13 0 11 0;
#X connect 14 0 15 0;
#X connect 15 0 16 0;
#X connect 16 0 31 0;
#X connect 17 0 25 0;
#X connect 18 0 4 0;
#X connect 19 0 18 0;
#X connect 24 0 2 0;
#X connect 25 0 0 0;
#X connect 25 1 27 0;
#X connect 26 0 17 0;
#X connect 27 0 14 0;
#X connect 27 0 42 0;
#X connect 28 0 0 0;
#X connect 28 0 27 0;
#X connect 29 0 44 0;
#X connect 29 0 49 0;
#X connect 29 0 50 0;
#X connect 29 0 63 0;
#X connect 30 0 28 0;
#X connect 30 0 26 0;
#X connect 31 0 24 0;
#X connect 32 0 24 0;
#X connect 33 0 41 0;
#X connect 34 0 36 1;
#X connect 35 0 34 0;
#X connect 36 0 33 0;
#X connect 37 0 40 1;
#X connect 37 0 41 1;
#X connect 38 0 39 0;
#X connect 39 0 37 0;
#X connect 40 0 3 1;
#X connect 41 0 5 1;
#X connect 42 0 43 0;
#X connect 43 0 37 0;
#X connect 44 0 45 0;
#X connect 45 0 56 0;
#X connect 46 0 3 0;
#X connect 46 0 5 0;
#X connect 48 0 7 0;
#X connect 49 0 10 0;
#X connect 50 0 30 0;
#X connect 52 0 55 0;
#X connect 53 0 52 0;
#X connect 55 0 51 0;
#X connect 56 0 3 0;
#X connect 56 0 5 0;
#X connect 58 0 61 0;
#X connect 59 0 58 0;
#X connect 61 0 57 0;
#X connect 62 0 64 0;
#X connect 63 0 62 0;
#X connect 64 0 65 0;
#X connect 65 0 67 0;
#X connect 66 0 1 1;
#X connect 67 0 1 0;
#X connect 68 0 66 1;
#X connect 68 0 67 1;
#X connect 68 0 69 0;
#X connect 71 0 74 0;
#X connect 72 0 71 0;
#X connect 74 0 70 0;
#X connect 75 0 77 0;
#X connect 75 1 76 0;
#X connect 76 0 75 0;
#X connect 77 0 67 0;
#X connect 77 0 66 0;
