#N canvas 287 22 1085 800 10;
#X declare -lib mrpeach;
#X floatatom 683 342 5 0 0 0 - - -;
#X obj 415 1043 output~;
#X obj 714 643 hsl 128 15 0 1 0 0 empty empty Balance 45 -8 0 10 -262144
-1 -1 12696 1;
#X obj 415 946 *~;
#X floatatom 656 850 5 0 0 0 - - -;
#X obj 473 946 *~;
#X floatatom 711 665 5 0 0 0 - - -;
#X obj 233 345 soundfiler;
#X obj 233 288 openpanel;
#X obj 233 262 bng 15 250 50 0 empty empty empty 17 7 0 10 -262144
-1 -1;
#X obj 446 600 bng 15 250 50 0 empty empty empty 17 7 0 10 -262144
-1 -1;
#X obj 446 634 tabplay~ sound;
#X msg 233 317 read -resize \$1 sound;
#X obj 233 233 table sound;
#X obj 683 422 + 1;
#X text 475 1393 fin;
#X obj 683 392 cos;
#X obj 735 392 sin;
#X obj 735 423 - 1;
#X obj 735 454 abs;
#X obj 644 194 hradio 15 1 0 2 empty empty empty 0 -8 0 10 -262144
-1 -1 1;
#X obj 656 721 abs;
#X obj 656 704 - 1;
#X text 653 215 Left/right;
#X text 683 192 Front/Back;
#X text 698 643 L;
#X text 849 642 R;
#X floatatom 711 561 5 0 0 0 - - -;
#X obj 645 281 route 0 1;
#X obj 644 152 bng 15 250 50 0 empty empty empty 17 7 0 10 -262144
-1 -1;
#X floatatom 735 342 5 0 0 0 - - -;
#X msg 574 253 set \$1;
#N canvas 1119 183 450 300 listen 0;
#X obj -818 36 import mrpeach;
#X obj -818 104 unpackOSC;
#X obj -818 74 udpreceive 12000;
#X obj -818 146 outlet;
#X connect 1 0 3 0;
#X connect 2 0 1 0;
#X restore 520 -5 pd listen;
#X obj 574 95 unpack f;
#X obj 574 63 routeOSC /sound;
#X obj 444 63 routeOSC /start;
#X obj 238 464 vsl 15 128 0 800 0 0 empty empty empty 0 -9 0 10 -262144
-1 -1 4800 1;
#X obj 307 465 vsl 15 128 0 5 0 0 empty empty empty 0 -9 0 10 -262144
-1 -1 900 1;
#X obj 282 674 *~;
#X obj 282 726 *~;
#X obj 330 686 tgl 15 0 empty empty empty 17 7 0 10 -262144 -1 -1 0
1;
#X obj 735 485 * 0.5;
#X obj 683 454 * 0.5;
#X floatatom 713 850 5 0 0 0 - - -;
#X floatatom 734 778 5 0 0 0 - - -;
#X obj 734 720 vsl 15 50 0 1 0 0 empty empty empty 0 -9 0 10 -262144
-1 -1 3200 1;
#X obj 713 814 * \$1;
#X obj 238 616 osc~ 200;
#X obj 307 616 osc~ 300;
#X floatatom 575 741 5 0 0 0 - - -;
#X obj 575 473 cos;
#X obj 575 492 abs;
#X obj 554 897 * \$1;
#X obj 588 901 * \$1;
#X obj 626 473 sin;
#X obj 626 492 abs;
#X connect 0 0 50 0;
#X connect 0 0 16 0;
#X connect 2 0 6 0;
#X connect 3 0 1 0;
#X connect 4 0 52 0;
#X connect 5 0 1 1;
#X connect 6 0 22 0;
#X connect 6 0 46 0;
#X connect 8 0 12 0;
#X connect 9 0 8 0;
#X connect 10 0 11 0;
#X connect 11 0 3 0;
#X connect 11 0 5 0;
#X connect 11 1 10 0;
#X connect 12 0 7 0;
#X connect 14 0 42 0;
#X connect 16 0 14 0;
#X connect 17 0 18 0;
#X connect 18 0 19 0;
#X connect 19 0 41 0;
#X connect 20 0 28 0;
#X connect 21 0 4 0;
#X connect 22 0 21 0;
#X connect 27 0 2 0;
#X connect 28 0 0 0;
#X connect 28 1 30 0;
#X connect 29 0 20 0;
#X connect 30 0 17 0;
#X connect 30 0 54 0;
#X connect 31 0 0 0;
#X connect 31 0 30 0;
#X connect 32 0 34 0;
#X connect 32 0 35 0;
#X connect 33 0 31 0;
#X connect 33 0 29 0;
#X connect 34 0 33 0;
#X connect 35 0 10 0;
#X connect 38 0 39 0;
#X connect 39 0 3 0;
#X connect 39 0 5 0;
#X connect 40 0 39 1;
#X connect 41 0 27 0;
#X connect 42 0 27 0;
#X connect 43 0 53 0;
#X connect 44 0 46 1;
#X connect 45 0 44 0;
#X connect 46 0 43 0;
#X connect 47 0 38 0;
#X connect 48 0 38 1;
#X connect 49 0 52 1;
#X connect 49 0 53 1;
#X connect 50 0 51 0;
#X connect 51 0 49 0;
#X connect 52 0 3 1;
#X connect 53 0 5 1;
#X connect 54 0 55 0;
#X connect 55 0 49 0;
