#N canvas 292 22 1356 941 10;
#X declare -lib mrpeach;
#X obj 799 55 import mrpeach;
#X obj 799 123 unpackOSC;
#X obj 799 93 udpreceive 12000;
#X floatatom 799 217 5 0 0 0 - - -;
#X obj 799 186 unpack f;
#X obj 799 154 routeOSC /sound;
#X obj 535 953 output~;
#X obj 764 516 hsl 128 15 0 1 0 0 empty empty empty 45 -8 0 10 -262144
-1 -1 1974 1;
#X obj 535 806 *~;
#X floatatom 705 716 5 0 0 0 - - -;
#X obj 705 658 - 1;
#X obj 705 685 abs;
#X obj 593 806 *~;
#X floatatom 761 717 5 0 0 0 - - -;
#X text 728 516 Left;
#X text 899 516 Right;
#X obj 358 557 osc~ 500;
#X obj 562 456 soundfiler;
#X obj 562 399 openpanel;
#X obj 562 373 bng 15 250 50 0 empty empty empty 17 7 0 10 -262144
-1 -1;
#X obj 566 530 bng 15 250 50 0 empty empty empty 17 7 0 10 -262144
-1 -1;
#X obj 427 556 osc~ 300;
#X obj 358 404 vsl 15 128 0 800 0 0 empty empty empty 0 -9 0 10 -262144
-1 -1 2900 1;
#X obj 427 405 vsl 15 128 0 5 0 0 empty empty empty 0 -9 0 10 -262144
-1 -1 900 1;
#X obj 402 614 *~;
#X obj 402 666 *~;
#X obj 450 626 tgl 15 0 empty empty empty 17 7 0 10 -262144 -1 -1 0
1;
#X obj 566 574 tabplay~ sound;
#X msg 562 428 read -resize \$1 sound;
#X obj 562 344 table sound;
#X obj 761 374 + 1;
#X obj 761 405 * 0.5;
#X text 595 1333 fin;
#X obj 761 343 cos;
#X obj 821 459 vsl 15 128 0 1 0 0 empty empty empty 0 -9 0 10 -262144
-1 -1 10952 1;
#X text 813 435 Front;
#X text 815 597 Back;
#X obj 821 273 sin;
#X obj 821 363 * 0.5;
#X obj 821 304 - 1;
#X obj 821 334 abs;
#X floatatom 868 716 5 0 0 0 - - -;
#X obj 868 658 - 1;
#X obj 868 685 abs;
#X floatatom 821 716 5 0 0 0 - - -;
#X obj 82 961 freeverb~;
#X msg 151 809 wet \$1;
#X obj 154 794 hsl 128 15 0 1 0 0 empty empty empty -2 -8 0 10 -262144
-1 -1 0 1;
#X obj 154 842 hsl 128 15 0 1 0 0 empty empty empty -2 -8 0 10 -262144
-1 -1 0 1;
#X obj 155 889 hsl 128 15 0 1 0 0 empty empty empty -2 -8 0 10 -262144
-1 -1 0 1;
#X msg 151 857 dry \$1;
#X msg 152 904 roomsize \$1;
#X obj 153 760 hsl 128 15 0 1 0 0 empty empty Reverb_mix 0 -8 0 10
-262144 -1 -1 0 1;
#X floatatom 37 832 5 0 0 0 - - -;
#X obj 37 787 - 1;
#X obj 37 809 abs;
#X floatatom 91 833 5 0 0 0 - - -;
#X connect 1 0 5 0;
#X connect 2 0 1 0;
#X connect 3 0 33 0;
#X connect 3 0 37 0;
#X connect 4 0 3 0;
#X connect 5 0 4 0;
#X connect 7 0 10 0;
#X connect 7 0 13 0;
#X connect 8 0 6 0;
#X connect 9 0 8 1;
#X connect 10 0 11 0;
#X connect 11 0 9 0;
#X connect 12 0 6 1;
#X connect 13 0 12 1;
#X connect 16 0 24 0;
#X connect 18 0 28 0;
#X connect 19 0 18 0;
#X connect 20 0 27 0;
#X connect 21 0 24 1;
#X connect 22 0 16 0;
#X connect 23 0 21 0;
#X connect 24 0 25 0;
#X connect 25 0 8 0;
#X connect 25 0 12 0;
#X connect 26 0 25 1;
#X connect 27 0 8 0;
#X connect 27 0 12 0;
#X connect 28 0 17 0;
#X connect 30 0 31 0;
#X connect 31 0 7 0;
#X connect 33 0 30 0;
#X connect 34 0 42 0;
#X connect 34 0 44 0;
#X connect 37 0 39 0;
#X connect 38 0 34 0;
#X connect 39 0 40 0;
#X connect 40 0 38 0;
#X connect 42 0 43 0;
#X connect 43 0 41 0;
#X connect 46 0 45 0;
#X connect 47 0 46 0;
#X connect 48 0 50 0;
#X connect 49 0 51 0;
#X connect 50 0 45 0;
#X connect 51 0 45 0;
#X connect 52 0 54 0;
#X connect 52 0 56 0;
#X connect 54 0 55 0;
#X connect 55 0 53 0;
