#N canvas 0 22 1440 852 10;
#X declare -lib mrpeach;
#X obj 356 167 vsl 15 100 0 800 0 0 empty empty empty 0 -9 0 10 -262144
-1 -1 600 1;
#X obj 355 400 output~;
#X obj 356 294 osc~;
#X obj 466 124 hsl 128 15 0 1023 0 0 empty empty Balance 45 -8 0 10
-262144 -1 -1 37 1;
#X obj 355 359 *~;
#X floatatom 421 322 5 0 0 0 - - -;
#X obj 421 240 - 1;
#X obj 421 281 abs;
#X obj 421 362 *~;
#X floatatom 467 299 5 0 0 0 - - -;
#X text 432 123 Left;
#X text 603 123 Right;
#X obj 463 163 / 1023;
#X obj 124 77 import mrpeach;
#X obj 124 159 unpackOSC;
#X obj 124 118 udpreceive 12000;
#X floatatom 341 77 5 0 0 0 - - -;
#X obj 140 259 unpack f;
#X obj 124 200 routeOSC /sound;
#X connect 0 0 2 0;
#X connect 2 0 4 0;
#X connect 2 0 8 0;
#X connect 3 0 12 0;
#X connect 4 0 1 0;
#X connect 5 0 4 1;
#X connect 6 0 7 0;
#X connect 7 0 5 0;
#X connect 8 0 1 1;
#X connect 9 0 8 1;
#X connect 12 0 6 0;
#X connect 12 0 9 0;
#X connect 14 0 18 0;
#X connect 15 0 14 0;
#X connect 16 0 3 0;
#X connect 17 0 16 0;
#X connect 18 0 17 0;
