#N canvas 252 22 1222 899 10;
#X obj 412 813 output~;
#X obj 609 139 hsl 128 15 0 1023 0 0 empty empty Balance 45 -8 0 10
-262144 -1 -1 6800 1;
#X obj 353 404 *~;
#X floatatom 552 317 5 0 0 0 - - -;
#X obj 552 259 - 1;
#X obj 552 286 abs;
#X obj 411 403 *~;
#X floatatom 608 318 5 0 0 0 - - -;
#X text 574 138 Left;
#X text 745 138 Right;
#X obj 606 187 / 1023;
#X obj 164 209 osc~ 500;
#X obj 378 168 soundfiler;
#X obj 378 111 openpanel;
#X obj 378 85 bng 15 250 50 0 empty empty empty 17 7 0 10 -262144 -1
-1;
#X obj 382 242 bng 15 250 50 0 empty empty empty 17 7 0 10 -262144
-1 -1;
#X obj 233 208 osc~ 300;
#X obj 161 56 vsl 15 128 0 800 0 0 empty empty empty 0 -9 0 10 -262144
-1 -1 4000 1;
#X obj 232 57 vsl 15 128 0 5 0 0 empty empty empty 0 -9 0 10 -262144
-1 -1 6100 1;
#X obj 208 266 *~;
#X obj 208 318 *~;
#X obj 256 278 tgl 15 0 empty empty empty 17 7 0 10 -262144 -1 -1 0
1;
#X obj 589 610 freeverb~;
#X msg 658 458 wet \$1;
#X obj 661 443 hsl 128 15 0 1 0 0 empty empty empty -2 -8 0 10 -262144
-1 -1 6200 1;
#X obj 661 491 hsl 128 15 0 1 0 0 empty empty empty -2 -8 0 10 -262144
-1 -1 12700 1;
#X obj 662 538 hsl 128 15 0 1 0 0 empty empty empty -2 -8 0 10 -262144
-1 -1 8400 1;
#X msg 658 506 dry \$1;
#X msg 659 553 roomsize \$1;
#X obj 382 286 tabplay~ sound;
#X msg 378 140 read -resize \$1 sound;
#X obj 378 56 table sound;
#X obj 660 409 hsl 128 15 0 1 0 0 empty empty Reverb_mix 0 -8 0 10
-262144 -1 -1 0 1;
#X floatatom 544 481 5 0 0 0 - - -;
#X obj 544 436 - 1;
#X obj 544 458 abs;
#X floatatom 598 482 5 0 0 0 - - -;
#X obj 350 701 *~;
#X obj 408 700 *~;
#X obj 458 700 *~;
#X obj 516 699 *~;
#X connect 1 0 10 0;
#X connect 2 0 37 0;
#X connect 2 0 22 0;
#X connect 3 0 2 1;
#X connect 4 0 5 0;
#X connect 5 0 3 0;
#X connect 6 0 38 0;
#X connect 6 0 22 1;
#X connect 7 0 6 1;
#X connect 10 0 4 0;
#X connect 10 0 7 0;
#X connect 11 0 19 0;
#X connect 13 0 30 0;
#X connect 14 0 13 0;
#X connect 15 0 29 0;
#X connect 16 0 19 1;
#X connect 17 0 11 0;
#X connect 18 0 16 0;
#X connect 19 0 20 0;
#X connect 20 0 2 0;
#X connect 20 0 6 0;
#X connect 21 0 20 1;
#X connect 22 0 39 0;
#X connect 22 1 40 0;
#X connect 23 0 22 0;
#X connect 24 0 23 0;
#X connect 25 0 27 0;
#X connect 26 0 28 0;
#X connect 27 0 22 0;
#X connect 28 0 22 0;
#X connect 29 0 2 0;
#X connect 29 0 6 0;
#X connect 30 0 12 0;
#X connect 32 0 34 0;
#X connect 32 0 36 0;
#X connect 33 0 37 1;
#X connect 33 0 38 1;
#X connect 34 0 35 0;
#X connect 35 0 33 0;
#X connect 36 0 39 1;
#X connect 36 0 40 1;
#X connect 37 0 0 0;
#X connect 38 0 0 1;
#X connect 39 0 0 0;
#X connect 40 0 0 1;
